<svg width="24" height="24" viewBox="0 0 24 24" fill="none" xmlns="http://www.w3.org/2000/svg">
<path fill-rule="evenodd" clip-rule="evenodd" d="M9.40157 4.09323C9.66571 3.92052 10.0198 3.99464 10.1926 4.25878L12 7.02311L13.8074 4.25878C13.9802 3.99464 14.3343 3.92052 14.5984 4.09323C14.8626 4.26593 14.9367 4.62007 14.764 4.88421L12.6827 8.06729L19.9068 19.1159C20.0217 19.2915 20.031 19.516 19.9312 19.7005C19.8313 19.8851 19.6384 20.0001 19.4286 20.0001H4.57143C4.3616 20.0001 4.16866 19.8851 4.06882 19.7005C3.96899 19.516 3.97833 19.2915 4.09316 19.1159L11.3173 8.06729L9.23602 4.88421C9.06331 4.62007 9.13743 4.26593 9.40157 4.09323ZM12 9.11148L5.62779 18.8572H11.4286V16.0001C11.4286 15.6845 11.6844 15.4286 12 15.4286C12.3156 15.4286 12.5714 15.6845 12.5714 16.0001V18.8572H18.3722L12 9.11148Z" fill="#505050" stroke="#505050" stroke-width="0.3" stroke-linecap="round" stroke-linejoin="round"/>
</svg>
