<svg width="24" height="24" viewBox="0 0 24 24" fill="none" xmlns="http://www.w3.org/2000/svg">
<path d="M16.8015 11.3846C18.5689 11.3846 20.0015 9.73151 20.0015 7.69231C20.0015 5.65311 18.5689 4 16.8015 4C15.0343 4 13.6016 5.65311 13.6016 7.69231C13.6016 9.73151 15.0343 11.3846 16.8015 11.3846Z" stroke="#505050" stroke-width="1.3" stroke-linecap="round" stroke-linejoin="round"/>
<path d="M16.8008 11.3848V20.0002" stroke="#505050" stroke-width="1.3" stroke-linecap="round" stroke-linejoin="round"/>
<path d="M7.33594 4V20" stroke="#505050" stroke-width="1.3" stroke-linecap="round" stroke-linejoin="round"/>
<path d="M10.6667 4V7.07692C10.6667 7.48098 10.5805 7.8811 10.4129 8.25441C10.2454 8.62772 9.99988 8.96692 9.69036 9.25264C9.38083 9.53835 9.01336 9.765 8.60895 9.91963C8.20452 10.0743 7.77107 10.1538 7.33333 10.1538C6.44928 10.1538 5.60143 9.82967 4.97631 9.25264C4.35119 8.67561 4 7.89297 4 7.07692V4" stroke="#505050" stroke-width="1.3" stroke-linecap="round" stroke-linejoin="round"/>
</svg>
