<svg width="24" height="24" viewBox="0 0 24 24" fill="none" xmlns="http://www.w3.org/2000/svg">
<path d="M18.1875 10.6875H17.0625C16.8036 10.6875 16.5938 10.8973 16.5938 11.1562V12.0393C16.3833 11.9374 16.1481 11.8793 15.8998 11.8756C16.08 11.5713 16.1517 11.2285 16.1084 10.8645L15.5248 5.9624C15.3916 4.84363 14.3497 4 13.1012 4H10.8988C9.65027 4 8.6084 4.84363 8.4751 5.9624L7.89148 10.8645C7.84827 11.2285 7.92004 11.5713 8.1001 11.8756C7.85193 11.8793 7.6167 11.9374 7.40625 12.0393V11.1562C7.40625 10.8973 7.19629 10.6875 6.9375 10.6875H5.8125C5.55359 10.6875 5.34375 10.8973 5.34375 11.1562C5.34375 11.4152 5.55359 11.625 5.8125 11.625H6.46875V13.297C6.46875 13.3246 6.47156 13.3513 6.4762 13.3776C6.47144 13.4282 6.46875 13.4794 6.46875 13.5312C6.46875 14.4446 7.21167 15.1875 8.125 15.1875H11.5312V17.531H8.71887C7.99512 17.531 7.40625 18.1199 7.40625 18.8436V19.531C7.40625 19.7899 7.61609 19.9998 7.875 19.9998C8.13391 19.9998 8.34375 19.7899 8.34375 19.531V18.8436C8.34375 18.6368 8.51196 18.4685 8.71887 18.4685H11.5312V19.5312C11.5312 19.7902 11.7411 20 12 20C12.2589 20 12.4688 19.7902 12.4688 19.5312V18.4685H15.2811C15.4879 18.4685 15.6562 18.6368 15.6562 18.8436V19.5312C15.6562 19.7902 15.8661 20 16.125 20C16.3839 20 16.5938 19.7902 16.5938 19.5312V18.8436C16.5938 18.1199 16.0049 17.531 15.2811 17.531H12.4688V15.1875H15.875C16.7882 15.1875 17.5312 14.4445 17.5312 13.5312C17.5312 13.4794 17.5286 13.4281 17.5238 13.3776C17.5284 13.3513 17.5312 13.3246 17.5312 13.297V11.625H18.1875C18.4464 11.625 18.6562 11.4152 18.6562 11.1562C18.6562 10.8973 18.4464 10.6875 18.1875 10.6875ZM8.82239 10.9753L9.40601 6.07324C9.48315 5.42578 10.1249 4.9375 10.8988 4.9375H13.1012C13.8751 4.9375 14.5168 5.42566 14.594 6.07324L15.1776 10.9753C15.2053 11.2081 15.1317 11.4008 14.9463 11.5815C14.7465 11.7762 14.4894 11.875 14.1821 11.875H9.81787C9.51062 11.875 9.25354 11.7762 9.05383 11.5815C8.86829 11.4008 8.7948 11.2081 8.82239 10.9753ZM15.875 14.25H8.125C7.72864 14.25 7.40625 13.9276 7.40625 13.5312C7.40625 13.1349 7.72864 12.8125 8.125 12.8125H15.875C16.2714 12.8125 16.5938 13.1349 16.5938 13.5312C16.5938 13.9276 16.2714 14.25 15.875 14.25Z" fill="#505050" stroke="#505050" stroke-width="0.3"/>
</svg>
