<svg width="24" height="24" viewBox="0 0 24 24" fill="none" xmlns="http://www.w3.org/2000/svg">
<path d="M6.27273 6.28571C6.27273 5.98261 6.40682 5.69192 6.6455 5.47759C6.88418 5.26327 7.20791 5.14286 7.54545 5.14286H16.4545C16.7921 5.14286 17.1158 5.26327 17.3545 5.47759C17.5932 5.69192 17.7273 5.98261 17.7273 6.28571V16.5714H6.27273V6.28571ZM7.54545 18.8571C7.20791 18.8571 6.88418 18.7367 6.6455 18.5224C6.40682 18.3081 6.27273 18.0174 6.27273 17.7143H17.8864C18.1817 17.7143 18.465 17.6089 18.6738 17.4214C18.8827 17.2339 19 16.9795 19 16.7143V6.28571C19 5.67951 18.7318 5.09812 18.2545 4.66947C17.7771 4.24082 17.1296 4 16.4545 4H7.54545C6.87036 4 6.22291 4.24082 5.74555 4.66947C5.26818 5.09812 5 5.67951 5 6.28571V17.7143C5 18.3205 5.26818 18.9019 5.74555 19.3305C6.22291 19.7592 6.87036 20 7.54545 20H18.3636C18.5324 20 18.6943 19.9398 18.8136 19.8326C18.933 19.7255 19 19.5801 19 19.4286C19 19.277 18.933 19.1317 18.8136 19.0245C18.6943 18.9173 18.5324 18.8571 18.3636 18.8571H7.54545ZM8.65909 6.28571C8.36374 6.28571 8.08048 6.39107 7.87163 6.57861C7.66278 6.76614 7.54545 7.0205 7.54545 7.28571V8.71429C7.54545 9.26629 8.04436 9.71429 8.65909 9.71429H15.3409C15.6363 9.71429 15.9195 9.60893 16.1284 9.42139C16.3372 9.23386 16.4545 8.9795 16.4545 8.71429V7.28571C16.4545 7.0205 16.3372 6.76614 16.1284 6.57861C15.9195 6.39107 15.6363 6.28571 15.3409 6.28571H8.65909ZM8.81818 8.57143V7.42857H15.1818V8.57143H8.81818Z" fill="#505050"/>
</svg>
