<svg width="24" height="24" viewBox="0 0 24 24" fill="none" xmlns="http://www.w3.org/2000/svg">
<path fill-rule="evenodd" clip-rule="evenodd" d="M8.82073 4.40168C9.07792 4.14449 9.42675 4 9.79048 4H14.2095C14.5732 4 14.9221 4.14449 15.1793 4.40168C15.4365 4.65887 15.581 5.0077 15.581 5.37143V8.41905H18.6286C18.9923 8.41905 19.3411 8.56354 19.5983 8.82073C19.8555 9.07792 20 9.42675 20 9.79048V14.2095C20 14.5732 19.8555 14.9221 19.5983 15.1793C19.3411 15.4365 18.9923 15.581 18.6286 15.581H15.581V18.6286C15.581 18.9923 15.4365 19.3411 15.1793 19.5983C14.9221 19.8555 14.5732 20 14.2095 20H9.79048C9.42675 20 9.07792 19.8555 8.82073 19.5983C8.56354 19.3411 8.41905 18.9923 8.41905 18.6286V15.581H5.37143C5.0077 15.581 4.65887 15.4365 4.40168 15.1793C4.14449 14.9221 4 14.5732 4 14.2095V9.79048C4 9.42675 4.14449 9.07792 4.40168 8.82073C4.65887 8.56354 5.0077 8.41905 5.37143 8.41905H8.41905V5.37143C8.41905 5.0077 8.56354 4.65887 8.82073 4.40168ZM9.79048 5.26984C9.76353 5.26984 9.73769 5.28054 9.71864 5.2996C9.69959 5.31865 9.68889 5.34449 9.68889 5.37143V9.05397C9.68889 9.40462 9.40462 9.68889 9.05397 9.68889H5.37143C5.34449 9.68889 5.31865 9.69959 5.2996 9.71864C5.28054 9.73769 5.26984 9.76353 5.26984 9.79048V14.2095C5.26984 14.2365 5.28054 14.2623 5.2996 14.2814C5.31865 14.3004 5.34449 14.3111 5.37143 14.3111H9.05397C9.40462 14.3111 9.68889 14.5954 9.68889 14.946V18.6286C9.68889 18.6555 9.69959 18.6814 9.71864 18.7004C9.73769 18.7195 9.76353 18.7302 9.79048 18.7302H14.2095C14.2365 18.7302 14.2623 18.7195 14.2814 18.7004C14.3004 18.6814 14.3111 18.6555 14.3111 18.6286V14.946C14.3111 14.5954 14.5954 14.3111 14.946 14.3111H18.6286C18.6555 14.3111 18.6814 14.3004 18.7004 14.2814C18.7195 14.2623 18.7302 14.2365 18.7302 14.2095V9.79048C18.7302 9.76353 18.7195 9.73769 18.7004 9.71864C18.6814 9.69959 18.6555 9.68889 18.6286 9.68889H14.946C14.5954 9.68889 14.3111 9.40462 14.3111 9.05397V5.37143C14.3111 5.34449 14.3004 5.31865 14.2814 5.2996C14.2623 5.28054 14.2365 5.26984 14.2095 5.26984H9.79048Z" fill="#505050"/>
</svg>
