<svg width="24" height="24" viewBox="0 0 24 24" fill="none" xmlns="http://www.w3.org/2000/svg">
<path d="M20 19.9986H19.3846C18.7318 19.9986 18.1057 19.7392 17.6441 19.2776C17.1824 18.816 16.9231 18.1899 16.9231 17.5371C16.9231 18.1899 16.6638 18.816 16.2021 19.2776C15.7404 19.7392 15.1144 19.9986 14.4615 19.9986C13.8087 19.9986 13.1826 19.7392 12.721 19.2776C12.2593 18.816 12 18.1899 12 17.5371C12 18.1899 11.7407 18.816 11.279 19.2776C10.8174 19.7392 10.1913 19.9986 9.53846 19.9986C8.88562 19.9986 8.25952 19.7392 7.7979 19.2776C7.33626 18.816 7.07692 18.1899 7.07692 17.5371C7.07692 18.1899 6.81759 18.816 6.35595 19.2776C5.89433 19.7392 5.26822 19.9986 4.61538 19.9986H4" stroke="#505050" stroke-width="1.3" stroke-linecap="round" stroke-linejoin="round"/>
<path d="M6.46094 6.46145C6.46094 5.80863 6.72027 5.18255 7.18191 4.72095C7.64353 4.25933 8.26964 4 8.92248 4C9.57531 4 10.2014 4.25933 10.663 4.72095C11.1247 5.18255 11.384 5.80863 11.384 6.46145V15.0765" stroke="#505050" stroke-width="1.3" stroke-linecap="round" stroke-linejoin="round"/>
<path d="M15.0781 4C15.7309 4 16.357 4.25933 16.8187 4.72095C17.2803 5.18255 17.5397 5.80863 17.5397 6.46145V15.0765" stroke="#505050" stroke-width="1.3" stroke-linecap="round" stroke-linejoin="round"/>
<path d="M11.3828 8.92188H17.5367" stroke="#505050" stroke-width="1.3" stroke-linecap="round" stroke-linejoin="round"/>
<path d="M11.3828 12.6152H17.5367" stroke="#505050" stroke-width="1.3" stroke-linecap="round" stroke-linejoin="round"/>
</svg>
