<svg width="24" height="24" viewBox="0 0 24 24" fill="none" xmlns="http://www.w3.org/2000/svg">
<path fill-rule="evenodd" clip-rule="evenodd" d="M6.24183 9.90406C6.88478 9.90406 7.5014 9.65525 7.95603 9.21235C8.41066 8.76946 8.66607 8.16878 8.66607 7.54244C8.66607 6.91609 8.41066 6.31541 7.95603 5.87252C7.5014 5.42962 6.88478 5.18081 6.24183 5.18081C5.59888 5.18081 4.98227 5.42962 4.52763 5.87252C4.073 6.31541 3.81759 6.91609 3.81759 7.54244C3.81759 8.16878 4.073 8.76946 4.52763 9.21235C4.98227 9.65525 5.59888 9.90406 6.24183 9.90406ZM6.24183 11.0849C6.71937 11.0849 7.19222 10.9932 7.63341 10.8152C8.07459 10.6372 8.47546 10.3763 8.81313 10.0473C9.1508 9.71837 9.41865 9.32785 9.60139 8.89807C9.78414 8.46828 9.8782 8.00763 9.8782 7.54244C9.8782 7.07724 9.78414 6.61659 9.60139 6.1868C9.41865 5.75702 9.1508 5.3665 8.81313 5.03756C8.47546 4.70861 8.07459 4.44768 7.63341 4.26965C7.19222 4.09163 6.71937 4 6.24183 4C5.27741 4 4.35249 4.37322 3.67054 5.03756C2.98858 5.70189 2.60547 6.60292 2.60547 7.54244C2.60547 8.48195 2.98858 9.38298 3.67054 10.0473C4.35249 10.7117 5.27741 11.0849 6.24183 11.0849Z" fill="#505050"/>
<path fill-rule="evenodd" clip-rule="evenodd" d="M4.85333 9.77965C4.90977 9.83449 4.95455 9.89965 4.98511 9.97138C5.01566 10.0431 5.03139 10.12 5.03139 10.1977C5.03139 10.2753 5.01566 10.3522 4.98511 10.4239C4.95455 10.4957 4.90977 10.5608 4.85333 10.6157L4.44364 11.0136C3.65519 11.7819 3.21222 12.8238 3.21212 13.9101V16.1017C3.21212 16.2583 3.14827 16.4085 3.03461 16.5192C2.92095 16.6299 2.7668 16.6921 2.60606 16.6921C2.44532 16.6921 2.29117 16.6299 2.17751 16.5192C2.06385 16.4085 2 16.2583 2 16.1017V13.9101C2.00017 12.5106 2.57089 11.1684 3.58667 10.1788L3.99515 9.77965C4.05145 9.72467 4.11833 9.68105 4.19196 9.65128C4.26559 9.62152 4.34452 9.6062 4.42424 9.6062C4.50396 9.6062 4.5829 9.62152 4.65653 9.65128C4.73016 9.68105 4.79704 9.72467 4.85333 9.77965ZM19.1467 9.42541C19.0902 9.48025 19.0454 9.5454 19.0149 9.61713C18.9843 9.68886 18.9686 9.76576 18.9686 9.84341C18.9686 9.92107 18.9843 9.99797 19.0149 10.0697C19.0454 10.1414 19.0902 10.2066 19.1467 10.2614L19.5564 10.6594C19.9468 11.0397 20.2565 11.4913 20.4678 11.9883C20.6791 12.4853 20.7879 13.018 20.7879 13.5559V16.1017C20.7879 16.2583 20.8517 16.4085 20.9654 16.5192C21.079 16.6299 21.2332 16.6921 21.3939 16.6921C21.5547 16.6921 21.7088 16.6299 21.8225 16.5192C21.9361 16.4085 22 16.2583 22 16.1017V13.5559C21.9998 12.1564 21.4291 10.8142 20.4133 9.82452L20.0048 9.42541C19.9486 9.37042 19.8817 9.3268 19.808 9.29704C19.7344 9.26727 19.6555 9.25195 19.5758 9.25195C19.496 9.25195 19.4171 9.26727 19.3435 9.29704C19.2698 9.3268 19.203 9.37042 19.1467 9.42541Z" fill="#505050"/>
<path fill-rule="evenodd" clip-rule="evenodd" d="M17.1501 9.90406C16.5071 9.90406 15.8905 9.65525 15.4359 9.21236C14.9813 8.76946 14.7259 8.16878 14.7259 7.54244C14.7259 6.91609 14.9813 6.31541 15.4359 5.87252C15.8905 5.42963 16.5071 5.18081 17.1501 5.18081C17.793 5.18081 18.4097 5.42963 18.8643 5.87252C19.3189 6.31541 19.5743 6.91609 19.5743 7.54244C19.5743 8.16878 19.3189 8.76946 18.8643 9.21236C18.4097 9.65525 17.793 9.90406 17.1501 9.90406ZM17.1501 11.0849C16.6726 11.0849 16.1997 10.9932 15.7585 10.8152C15.3173 10.6372 14.9165 10.3763 14.5788 10.0473C14.2411 9.71837 13.9733 9.32786 13.7905 8.89807C13.6078 8.46828 13.5137 8.00764 13.5137 7.54244C13.5137 7.07724 13.6078 6.61659 13.7905 6.1868C13.9733 5.75702 14.2411 5.3665 14.5788 5.03756C14.9165 4.70861 15.3173 4.44768 15.7585 4.26965C16.1997 4.09163 16.6726 4 17.1501 4C18.1145 4 19.0394 4.37322 19.7214 5.03756C20.4033 5.70189 20.7865 6.60292 20.7865 7.54244C20.7865 8.48195 20.4033 9.38298 19.7214 10.0473C19.0394 10.7117 18.1145 11.0849 17.1501 11.0849ZM11.6955 14.9225C10.8919 14.9225 10.1211 15.2335 9.5528 15.7871C8.98451 16.3408 8.66525 17.0916 8.66525 17.8745V19.4096C8.66525 19.5662 8.60139 19.7164 8.48774 19.8271C8.37408 19.9378 8.21992 20 8.05919 20C7.89845 20 7.74429 19.9378 7.63064 19.8271C7.51698 19.7164 7.45312 19.5662 7.45312 19.4096V17.8745C7.45313 16.7784 7.90009 15.7272 8.6957 14.9522C9.49131 14.1771 10.5704 13.7417 11.6955 13.7417C12.8207 13.7417 13.8998 14.1771 14.6954 14.9522C15.491 15.7272 15.938 16.7784 15.938 17.8745V19.4096C15.938 19.5662 15.8741 19.7164 15.7605 19.8271C15.6468 19.9378 15.4927 20 15.3319 20C15.1712 20 15.017 19.9378 14.9034 19.8271C14.7897 19.7164 14.7259 19.5662 14.7259 19.4096V17.8745C14.7259 17.4869 14.6475 17.103 14.4952 16.7448C14.3429 16.3867 14.1197 16.0613 13.8383 15.7871C13.5569 15.513 13.2228 15.2956 12.8552 15.1472C12.4875 14.9989 12.0935 14.9225 11.6955 14.9225Z" fill="#505050"/>
<path fill-rule="evenodd" clip-rule="evenodd" d="M11.6989 13.1521C12.3418 13.1521 12.9584 12.9033 13.4131 12.4604C13.8677 12.0175 14.1231 11.4168 14.1231 10.7905C14.1231 10.1641 13.8677 9.56345 13.4131 9.12056C12.9584 8.67767 12.3418 8.42886 11.6989 8.42886C11.0559 8.42886 10.4393 8.67767 9.98467 9.12056C9.53003 9.56345 9.27462 10.1641 9.27462 10.7905C9.27462 11.4168 9.53003 12.0175 9.98467 12.4604C10.4393 12.9033 11.0559 13.1521 11.6989 13.1521ZM11.6989 14.3329C12.6633 14.3329 13.5882 13.9597 14.2702 13.2954C14.9521 12.631 15.3352 11.73 15.3352 10.7905C15.3352 9.85097 14.9521 8.94994 14.2702 8.2856C13.5882 7.62127 12.6633 7.24805 11.6989 7.24805C10.7344 7.24805 9.80952 7.62127 9.12757 8.2856C8.44562 8.94994 8.0625 9.85097 8.0625 10.7905C8.0625 11.73 8.44562 12.631 9.12757 13.2954C9.80952 13.9597 10.7344 14.3329 11.6989 14.3329Z" fill="#505050"/>
</svg>
