<svg width="24" height="24" viewBox="0 0 24 24" fill="none" xmlns="http://www.w3.org/2000/svg">
<path d="M12 3C14.1217 3 16.1566 3.78049 17.6569 5.16976C19.1571 6.55903 20 8.44329 20 10.408C20 13.5384 17.6246 16.9499 12.9354 20.6789C12.6746 20.8864 12.3422 21.0003 11.9985 21C11.6547 20.9997 11.3225 20.8853 11.0622 20.6774L10.752 20.4282C6.27036 16.7964 4 13.4685 4 10.408C4 8.44329 4.84285 6.55903 6.34315 5.16976C7.84344 3.78049 9.87827 3 12 3ZM12 7.55878C11.1839 7.55878 10.4013 7.85897 9.82429 8.3933C9.24725 8.92764 8.92308 9.65235 8.92308 10.408C8.92308 11.1637 9.24725 11.8884 9.82429 12.4227C10.4013 12.9571 11.1839 13.2573 12 13.2573C12.8161 13.2573 13.5987 12.9571 14.1757 12.4227C14.7527 11.8884 15.0769 11.1637 15.0769 10.408C15.0769 9.65235 14.7527 8.92764 14.1757 8.3933C13.5987 7.85897 12.8161 7.55878 12 7.55878Z" fill="#8C8C8C"/>
</svg>
