<svg width="24" height="24" viewBox="0 0 24 24" fill="none" xmlns="http://www.w3.org/2000/svg">
<path fill-rule="evenodd" clip-rule="evenodd" d="M14.3874 14.0757C13.6261 13.869 12.6995 13.8798 11.8574 14.6607C10.6927 15.7407 9.40593 15.7302 8.4551 15.4715C7.99973 15.3475 7.61161 15.1652 7.3318 15.0101L6.05797 17.9379C6.05797 17.9379 6.05798 17.9379 6.05797 17.9379C5.98918 18.0961 5.97964 18.2783 6.03151 18.4443C6.08335 18.6102 6.19228 18.7464 6.33435 18.823C6.41577 18.8668 6.50441 18.8894 6.59402 18.8894H16.4839C16.5847 18.8894 16.684 18.8609 16.7723 18.8067C16.8605 18.7524 16.9349 18.6741 16.9886 18.5791C17.0422 18.4841 17.0732 18.3755 17.0789 18.2635C17.0845 18.1516 17.0644 18.0398 17.0207 17.9388C17.0207 17.9388 17.0207 17.9388 17.0207 17.9388L15.5811 14.619C15.5211 14.5792 15.4372 14.5265 15.3332 14.468C15.0987 14.3362 14.7693 14.1794 14.3874 14.0757ZM15.9684 14.2339L16.252 13.7767C16.3232 13.8314 16.3805 13.9057 16.4181 13.9925L17.9199 17.4559C18.0372 17.7264 18.0908 18.0256 18.0758 18.3254C18.0608 18.6252 17.9776 18.9158 17.8341 19.1701C17.6905 19.4244 17.4914 19.634 17.2552 19.7792C17.0191 19.9244 16.7537 20.0005 16.4839 20.0004C16.4838 20.0004 16.4839 20.0004 16.4839 20.0004H6.59402C6.3532 20.0004 6.11609 19.9397 5.89985 19.8234L5.89952 19.8232C5.519 19.6183 5.22723 19.2535 5.0884 18.8091C4.94957 18.3648 4.97506 17.8773 5.15924 17.4538L6.66547 13.9918C6.72902 13.8458 6.84678 13.7379 6.98782 13.6966C7.12846 13.6555 7.27823 13.6846 7.39797 13.7764M7.39797 13.7764L7.39839 13.7767L7.39865 13.7769C7.39881 13.777 7.39897 13.7771 7.11482 14.2339M7.39797 13.7764L7.40028 13.7781C7.40296 13.7801 7.40785 13.7837 7.41485 13.7888C7.42887 13.799 7.45132 13.8149 7.48153 13.8353C7.54204 13.8762 7.63311 13.9345 7.74933 14.0001C7.9831 14.1319 8.31141 14.2885 8.69229 14.3922C9.45121 14.5987 10.3759 14.5882 11.2182 13.8071C12.383 12.727 13.6718 12.7377 14.6241 12.9963C15.0989 13.1252 15.5009 13.3174 15.7835 13.4764C15.9255 13.5562 16.0391 13.6286 16.1188 13.6822C16.1587 13.7091 16.1901 13.7313 16.2125 13.7475C16.2238 13.7556 16.2327 13.7622 16.2393 13.7671L16.2474 13.7732L16.2502 13.7753L16.2512 13.776L16.2516 13.7764C16.2518 13.7765 16.252 13.7767 15.9684 14.2339" fill="#505050"/>
<path fill-rule="evenodd" clip-rule="evenodd" d="M9.04047 4.55554C9.04047 4.24872 9.26399 4 9.53971 4H13.5569C13.8327 4 14.0562 4.24872 14.0562 4.55554V8.53743L16.4203 13.9917L15.5209 14.4744L13.1073 8.90575C13.0746 8.83048 13.0577 8.74798 13.0577 8.66441V5.11109H10.0389V8.66441C10.0389 8.74824 10.0219 8.83099 9.98907 8.90646L7.56669 14.4751L6.66797 13.991L9.04047 8.53702V4.55554Z" fill="#505050"/>
</svg>
