<svg width="24" height="24" viewBox="0 0 24 24" fill="none" xmlns="http://www.w3.org/2000/svg">
<path d="M13.272 5.47859C13.272 6.29519 12.7022 6.95717 11.9993 6.95717C11.2964 6.95717 10.7266 6.29519 10.7266 5.47859C10.7266 4.66198 11.2964 4 11.9993 4C12.7022 4 13.272 4.66198 13.272 5.47859Z" stroke="#505050" stroke-width="1.3" stroke-linecap="round" stroke-linejoin="round"/>
<path d="M12 6.95703V9.8086" stroke="#505050" stroke-width="1.3" stroke-linecap="round" stroke-linejoin="round"/>
<path d="M13.9119 16.7539C13.9119 16.7539 13.3119 17.4932 12.0028 17.4932C10.6937 17.4932 10.0938 16.7539 10.0938 16.7539" stroke="#505050" stroke-width="1.3" stroke-linecap="round" stroke-linejoin="round"/>
<path d="M9.85866 13.954C9.70804 13.954 9.58594 13.8122 9.58594 13.6372C9.58594 13.4622 9.70804 13.3203 9.85866 13.3203" stroke="#505050" stroke-width="1.3" stroke-linecap="round" stroke-linejoin="round"/>
<path d="M9.85938 13.954C10.01 13.954 10.1321 13.8122 10.1321 13.6372C10.1321 13.4622 10.01 13.3203 9.85938 13.3203" stroke="#505050" stroke-width="1.3" stroke-linecap="round" stroke-linejoin="round"/>
<path d="M14.1399 13.954C13.9893 13.954 13.8672 13.8122 13.8672 13.6372C13.8672 13.4622 13.9893 13.3203 14.1399 13.3203" stroke="#505050" stroke-width="1.3" stroke-linecap="round" stroke-linejoin="round"/>
<path d="M14.1406 13.954C14.2912 13.954 14.4134 13.8122 14.4134 13.6372C14.4134 13.4622 14.2912 13.3203 14.1406 13.3203" stroke="#505050" stroke-width="1.3" stroke-linecap="round" stroke-linejoin="round"/>
<path d="M6 17.4655V12.3961C6 10.9962 6.97683 9.86133 8.18182 9.86133H15.8182C17.0232 9.86133 18 10.9962 18 12.3961V17.4655C18 18.8654 17.0232 20.0002 15.8182 20.0002H8.18182C6.97683 20.0002 6 18.8654 6 17.4655Z" stroke="#505050" stroke-width="1.3" stroke-linecap="round" stroke-linejoin="round"/>
</svg>
