<svg width="24" height="24" viewBox="0 0 24 24" fill="none" xmlns="http://www.w3.org/2000/svg">
<path d="M19.4536 17.957H18.1069L14.3815 6.13492C14.307 5.89657 14.1331 5.74335 13.9344 5.7127V5.21217C13.9344 4.5448 13.4929 4 12.952 4H12.436C11.8951 4 11.4536 4.5448 11.4536 5.21217V5.79442C11.2908 5.9136 11.1776 6.13152 11.1776 6.38008V7.06108H9.43356L9.14105 6.13492C9.06654 5.89657 8.89268 5.74335 8.69399 5.7127V5.21217C8.69399 4.5448 8.25246 4 7.71158 4H7.19554C6.6519 4 6.21313 4.5448 6.21313 5.21217V5.79442C6.05031 5.9136 5.93717 6.13152 5.93717 6.38008V7.36753L4.00546 19.5948C3.97511 19.7787 4.07445 19.9591 4.22347 19.9932C4.24003 19.9966 4.25935 20 4.2759 20C4.4056 20 4.52151 19.8876 4.54634 19.7242L4.76987 18.2975H8.15863L7.95443 19.5948C7.92683 19.7787 8.02342 19.9591 8.17243 19.9932C8.18899 19.9966 8.20831 20 8.22486 20C8.35456 20 8.47047 19.8876 8.4953 19.7242L9.52463 13.1356L11.6192 19.7821C11.6605 19.9115 11.7626 20 11.8758 20H19.4481C19.7516 20 20 19.6936 20 19.319V18.638C20 18.2635 19.7516 17.957 19.4481 17.957H19.4536ZM12.0027 5.20877C12.0027 4.91594 12.1959 4.67759 12.4332 4.67759H12.9493C13.1866 4.67759 13.3798 4.91594 13.3798 5.20877V5.69908H12V5.20877H12.0027ZM6.75953 5.20877C6.75953 4.91594 6.9527 4.67759 7.19002 4.67759H7.70606C7.94339 4.67759 8.13656 4.91594 8.13656 5.20877V5.69908H6.75677V5.20877H6.75953ZM9.15208 11.9404L9.06378 12.5056H5.68329L5.84335 11.4841H9.00859L9.15208 11.9404ZM8.95615 13.1866L8.7961 14.2081H5.41285L5.57291 13.1866H8.95339H8.95615ZM5.30523 14.8891H8.68847L8.52842 15.9106H5.14793L5.30799 14.8891H5.30523ZM5.94821 10.8031L6.10827 9.78166H8.46771L8.79058 10.8031H5.94821ZM6.21589 9.10066L6.43114 7.73867H7.82473L8.25522 9.10066H6.21865H6.21589ZM4.87473 17.6131L5.03479 16.5916H8.42079L8.26074 17.6131H4.88025H4.87473ZM12.0662 19.3156L8.27178 7.27559C8.23038 7.1462 8.12828 7.05767 8.01514 7.05767H6.48081V6.37668H8.62224L12.4167 18.4167C12.4581 18.5461 12.5602 18.6346 12.6733 18.6346H14.2076V19.3156H12.0662ZM14.2076 17.9536H12.861L9.64053 7.73867H13.0679L16.7161 19.3156H14.7568V18.6346C14.7568 18.2601 14.5084 17.9536 14.2049 17.9536H14.2076ZM17.3094 19.3156L13.515 7.27559C13.4736 7.1462 13.3715 7.05767 13.2583 7.05767H11.724V6.37668H13.8654L17.6599 18.4167C17.7013 18.5461 17.8034 18.6346 17.9165 18.6346H19.4508V19.3156H17.3094Z" fill="#505050" stroke="#505050" stroke-width="0.3"/>
</svg>
