<svg width="24" height="24" viewBox="0 0 24 24" fill="none" xmlns="http://www.w3.org/2000/svg">
<path d="M11.1992 4.89258H18.9544C19.5313 4.89258 19.9989 5.31009 19.9989 5.82513V13.2725C19.9989 13.7875 19.5313 14.205 18.9544 14.205H12.6148" stroke="#505050" stroke-width="1.3" stroke-linecap="round" stroke-linejoin="round"/>
<path d="M7.25993 7.84642C8.44981 7.84642 9.4144 6.98537 9.4144 5.92321C9.4144 4.86105 8.44981 4 7.25993 4C6.07005 4 5.10547 4.86105 5.10547 5.92321C5.10547 6.98537 6.07005 7.84642 7.25993 7.84642Z" stroke="#505050" stroke-width="1.3" stroke-linecap="round" stroke-linejoin="round"/>
<path d="M14 10.51C14 9.83462 13.4588 9.28711 12.7912 9.28711H7.11639C5.39526 9.28711 4 10.6987 4 12.4399V15.2382H5.33559L5.78079 19.9991H8.45198L9.47794 11.7329H12.7912C13.4588 11.7329 14 11.1854 14 10.51Z" stroke="#505050" stroke-width="1.3" stroke-linecap="round" stroke-linejoin="round"/>
</svg>
