<svg width="24" height="24" viewBox="0 0 24 24" fill="none" xmlns="http://www.w3.org/2000/svg">
<path d="M6.46154 19.9993C7.82101 19.9993 8.92308 18.8833 8.92308 17.5065C8.92308 16.1298 7.82101 15.0137 6.46154 15.0137C5.10207 15.0137 4 16.1298 4 17.5065C4 18.8833 5.10207 19.9993 6.46154 19.9993Z" stroke="#505050" stroke-width="1.3" stroke-linecap="round" stroke-linejoin="round"/>
<path d="M17.5397 16.8841C18.8992 16.8841 20.0012 15.768 20.0012 14.3913C20.0012 13.0145 18.8992 11.8984 17.5397 11.8984C16.1802 11.8984 15.0781 13.0145 15.0781 14.3913C15.0781 15.768 16.1802 16.8841 17.5397 16.8841Z" stroke="#505050" stroke-width="1.3" stroke-linecap="round" stroke-linejoin="round"/>
<path d="M19.9988 14.3916V4.61971C19.9983 4.52435 19.9762 4.43039 19.9341 4.34505C19.8921 4.25971 19.8313 4.18528 19.7563 4.12749C19.6815 4.06969 19.5945 4.03008 19.5021 4.01169C19.4096 3.99331 19.3144 3.99664 19.2234 4.02143L9.37726 6.78848C9.24714 6.82397 9.13213 6.9017 9.04986 7.00978C8.9676 7.11787 8.92263 7.2503 8.92188 7.38676V17.5077" stroke="#505050" stroke-width="1.3" stroke-linecap="round" stroke-linejoin="round"/>
<path d="M8.92188 10.6512L19.9988 7.53516" stroke="#505050" stroke-width="1.3" stroke-linecap="round" stroke-linejoin="round"/>
</svg>
