<svg width="24" height="24" viewBox="0 0 24 24" fill="none" xmlns="http://www.w3.org/2000/svg">
<g clip-path="url(#clip0_1709_3922)">
<path fill-rule="evenodd" clip-rule="evenodd" d="M13.0813 5.83782C13.0376 5.83273 12.9936 5.83273 12.9499 5.83782C12.8959 5.84448 12.8153 5.86915 12.6546 5.99648C12.4859 6.12982 12.2833 6.33182 11.9733 6.64182C11.6633 6.95182 11.4619 7.15448 11.3279 7.32315C11.2006 7.48315 11.1753 7.56448 11.1693 7.61848C11.1642 7.66212 11.1642 7.70619 11.1693 7.74982C11.1759 7.80382 11.2006 7.88448 11.3279 8.04515C11.4613 8.21382 11.6633 8.41648 11.9733 8.72648L15.2726 12.0265C15.5826 12.3358 15.7853 12.5372 15.9539 12.6712C16.1146 12.7985 16.1953 12.8238 16.2493 12.8298C16.2929 12.8349 16.337 12.8349 16.3806 12.8298C16.4346 12.8232 16.5153 12.7985 16.6759 12.6712C16.8446 12.5378 17.0473 12.3358 17.3573 12.0258C17.6673 11.7158 17.8686 11.5132 18.0026 11.3445C18.1299 11.1845 18.1553 11.1032 18.1613 11.0492C18.1663 11.0055 18.1663 10.9614 18.1613 10.9178C18.1546 10.8638 18.1299 10.7832 18.0026 10.6225C17.8693 10.4538 17.6673 10.2512 17.3573 9.94115L14.0579 6.64115C13.7479 6.33182 13.5453 6.13048 13.3766 5.99648C13.2159 5.86915 13.1353 5.84382 13.0813 5.83782ZM12.8339 4.84448C12.9546 4.83048 13.0766 4.83048 13.1973 4.84448C13.5106 4.88115 13.7653 5.02848 13.9979 5.21315C14.2179 5.38648 14.4606 5.63048 14.7446 5.91448L18.0846 9.25448C18.3686 9.53848 18.6119 9.78115 18.7859 10.0012C18.9706 10.2338 19.1179 10.4878 19.1546 10.8018C19.1686 10.9225 19.1686 11.0445 19.1546 11.1652C19.1179 11.4792 18.9706 11.7332 18.7859 11.9658C18.6126 12.1858 18.3686 12.4285 18.0846 12.7132L18.0446 12.7532C17.7599 13.0372 17.5173 13.2805 17.2979 13.4545C17.0646 13.6392 16.8106 13.7865 16.4966 13.8232C16.3759 13.8373 16.254 13.8373 16.1333 13.8232C15.8199 13.7865 15.5653 13.6392 15.3326 13.4545C15.1126 13.2812 14.8699 13.0372 14.5859 12.7532L14.1779 12.3452L12.3433 14.1798L12.7513 14.5872C13.0353 14.8718 13.2786 15.1152 13.4526 15.3338C13.6373 15.5672 13.7846 15.8212 13.8213 16.1352C13.8353 16.2558 13.8353 16.3778 13.8213 16.4985C13.7846 16.8125 13.6373 17.0665 13.4526 17.2992C13.2793 17.5192 13.0353 17.7618 12.7513 18.0465L12.7113 18.0865C12.4266 18.3705 12.1833 18.6138 11.9646 18.7878C11.7313 18.9725 11.4773 19.1198 11.1633 19.1565C11.0426 19.1706 10.9206 19.1706 10.7999 19.1565C10.4866 19.1198 10.2319 18.9725 9.99927 18.7878C9.77927 18.6145 9.5366 18.3705 9.2526 18.0865L5.9126 14.7465C5.6286 14.4625 5.38527 14.2198 5.21127 13.9998C5.0266 13.7672 4.87927 13.5132 4.8426 13.1992C4.82851 13.0785 4.82851 12.9565 4.8426 12.8358C4.87927 12.5218 5.0266 12.2678 5.21127 12.0352C5.3846 11.8152 5.6286 11.5725 5.9126 11.2878L5.9526 11.2478C6.23727 10.9638 6.4806 10.7205 6.69927 10.5465C6.9326 10.3618 7.1866 10.2145 7.5006 10.1778C7.62127 10.1638 7.74327 10.1638 7.86394 10.1778C8.17727 10.2145 8.43194 10.3618 8.6646 10.5465C8.8846 10.7198 9.12727 10.9638 9.41127 11.2478L9.56727 11.4032L11.4013 9.56915L11.2459 9.41382C10.9619 9.12915 10.7186 8.88582 10.5446 8.66715C10.3599 8.43382 10.2126 8.17982 10.1759 7.86582C10.1618 7.74512 10.1618 7.62318 10.1759 7.50248C10.2126 7.18848 10.3599 6.93448 10.5446 6.70182C10.7179 6.48182 10.9619 6.23915 11.2459 5.95515L11.2859 5.91515C11.5706 5.63048 11.8139 5.38715 12.0326 5.21315C12.2659 5.02848 12.5199 4.88115 12.8339 4.84448ZM12.1086 10.2758L10.2739 12.1105L11.6359 13.4725L13.4706 11.6385L12.1086 10.2758ZM15.6573 5.31248C15.7037 5.26602 15.7588 5.22916 15.8195 5.20402C15.8802 5.17887 15.9452 5.16592 16.0109 5.16592C16.0766 5.16592 16.1417 5.17887 16.2024 5.20402C16.263 5.22916 16.3182 5.26602 16.3646 5.31248L18.4339 7.38182C18.5223 7.4766 18.5703 7.60197 18.5681 7.7315C18.5658 7.86103 18.5133 7.98462 18.4217 8.07623C18.3301 8.16784 18.2065 8.22032 18.077 8.2226C17.9474 8.22489 17.8221 8.1768 17.7273 8.08848L15.6573 6.02048C15.6108 5.97405 15.5739 5.91892 15.5488 5.85823C15.5237 5.79755 15.5107 5.73251 15.5107 5.66682C15.5107 5.60113 15.5237 5.53609 15.5488 5.4754C15.5739 5.41472 15.6108 5.35892 15.6573 5.31248ZM7.74794 11.1712C7.70431 11.1661 7.66024 11.1661 7.6166 11.1712C7.5626 11.1778 7.48194 11.2025 7.32127 11.3298C7.1526 11.4632 6.94994 11.6652 6.63994 11.9752C6.32994 12.2852 6.1286 12.4878 5.9946 12.6565C5.86727 12.8165 5.84194 12.8978 5.83594 12.9518C5.83085 12.9954 5.83085 13.0395 5.83594 13.0832C5.8426 13.1372 5.86727 13.2178 5.9946 13.3785C6.12794 13.5472 6.32994 13.7498 6.63994 14.0598L9.93927 17.3598C10.2493 17.6692 10.4519 17.8705 10.6206 18.0045C10.7813 18.1318 10.8619 18.1572 10.9159 18.1631C10.9596 18.1682 11.0036 18.1682 11.0473 18.1631C11.1013 18.1565 11.1819 18.1318 11.3426 18.0045C11.5113 17.8712 11.7139 17.6692 12.0239 17.3592C12.3339 17.0492 12.5353 16.8465 12.6693 16.6778C12.7966 16.5178 12.8219 16.4365 12.8279 16.3825C12.833 16.3389 12.833 16.2948 12.8279 16.2512C12.8213 16.1972 12.7966 16.1165 12.6693 15.9558C12.5359 15.7872 12.3339 15.5845 12.0239 15.2745L8.7246 11.9745C8.4146 11.6652 8.21194 11.4638 8.04327 11.3298C7.8826 11.2025 7.80194 11.1772 7.74794 11.1712ZM5.30994 15.6592C5.40369 15.5655 5.53077 15.5129 5.66327 15.5129C5.79577 15.5129 5.92285 15.5655 6.0166 15.6592L8.0866 17.7285C8.13573 17.7743 8.17513 17.8295 8.20246 17.8908C8.22979 17.9521 8.24448 18.0183 8.24567 18.0855C8.24685 18.1526 8.2345 18.2193 8.20935 18.2815C8.18421 18.3438 8.14678 18.4004 8.0993 18.4478C8.05182 18.4953 7.99526 18.5328 7.933 18.5579C7.87074 18.583 7.80406 18.5954 7.73692 18.5942C7.66979 18.593 7.60358 18.5783 7.54225 18.551C7.48091 18.5237 7.42571 18.4843 7.37994 18.4352L5.30994 16.3658C5.2163 16.2721 5.16371 16.145 5.16371 16.0125C5.16371 15.88 5.2163 15.7529 5.30994 15.6592Z" fill="#505050"/>
</g>
<defs>
<clipPath id="clip0_1709_3922">
<rect width="16" height="16" fill="white" transform="translate(4 4)"/>
</clipPath>
</defs>
</svg>
