<svg width="24" height="24" viewBox="0 0 24 24" fill="none" xmlns="http://www.w3.org/2000/svg">
<path d="M20.6187 20H3.38132C3.17073 20 3 19.8296 3 19.6195C3 19.4094 3.17073 19.2391 3.38132 19.2391H20.6187C20.8293 19.2391 21 19.4094 21 19.6195C21 19.8296 20.8293 20 20.6187 20ZM19.9193 18.2659C19.7087 18.2659 19.538 18.0955 19.538 17.8854V9.47778H16.4633C16.2527 9.47778 16.0819 9.30743 16.0819 9.09732C16.0819 8.8872 16.2527 8.71685 16.4633 8.71685H19.9194C20.13 8.71685 20.3007 8.8872 20.3007 9.09732C20.3007 9.10022 20.3007 9.10307 20.3006 9.10592V17.8854C20.3006 18.0955 20.1299 18.2659 19.9193 18.2659ZM18.0189 18.2659H5.98108C5.7705 18.2659 5.59976 18.0955 5.59976 17.8854V12.4759C5.59976 12.2658 5.7705 12.0954 5.98108 12.0954H18.0189C18.2295 12.0954 18.4002 12.2658 18.4002 12.4759V17.8854C18.4002 18.0955 18.2295 18.2659 18.0189 18.2659ZM15.3908 17.5049H17.6376V12.8563H15.3908V17.5049ZM12.3813 17.5049H14.6282V12.8563H12.3813V17.5049ZM9.37188 17.5049H11.6187V12.8563H9.37188V17.5049ZM6.36239 17.5049H8.60925V12.8563H6.36239V17.5049ZM4.08055 18.2659C3.86997 18.2659 3.69924 18.0955 3.69924 17.8854V9.10307C3.69924 9.10117 3.69919 9.09922 3.69919 9.09732C3.69919 8.8872 3.86992 8.71685 4.08051 8.71685H7.53665C7.74724 8.71685 7.91797 8.8872 7.91797 9.09732C7.91797 9.30743 7.74724 9.47778 7.53665 9.47778H4.46187V17.8854C4.46187 18.0955 4.29118 18.2659 4.08055 18.2659ZM12 11.0255C10.0587 11.0255 8.47941 9.44972 8.47941 7.51276C8.47941 5.5758 10.0587 4 12 4C13.9413 4 15.5205 5.5758 15.5205 7.51276C15.5205 9.44972 13.9412 11.0255 12 11.0255ZM11.5596 10.2295C11.703 10.2526 11.8502 10.2646 12 10.2646C12.5382 10.2646 13.0409 10.1099 13.4658 9.84294C13.3616 9.27438 13.1615 8.7362 12.8824 8.2465C12.2624 8.75081 11.793 9.43698 11.5596 10.2295ZM9.38093 8.37576C9.61992 9.09613 10.1498 9.68557 10.8309 10.005C11.1164 9.04358 11.6942 8.2142 12.4561 7.61278C12.3006 7.41479 12.1308 7.22846 11.9482 7.05516C11.2598 7.73634 10.3683 8.20826 9.38093 8.37576ZM13.5171 7.82284C13.7796 8.27303 13.9836 8.75984 14.119 9.27224C14.5178 8.79489 14.7579 8.18134 14.7579 7.51276C14.7579 7.47443 14.7571 7.43638 14.7556 7.39843C14.3158 7.47201 13.8986 7.61744 13.5171 7.82284ZM9.81168 5.8397C9.45458 6.30364 9.24204 6.88399 9.24204 7.51281C9.24204 7.55105 9.24285 7.58919 9.24438 7.62709C10.051 7.49212 10.782 7.11546 11.3547 6.57034C10.8908 6.24562 10.3707 5.99579 9.81168 5.8397ZM12.4454 6.47841C12.6792 6.69752 12.895 6.93512 13.0906 7.18889C13.559 6.92713 14.0744 6.74213 14.619 6.64977C14.38 5.92945 13.8501 5.33996 13.1691 5.0206C13.0112 5.55231 12.7638 6.04373 12.4454 6.47841ZM10.4417 5.24337C10.9497 5.42861 11.4248 5.68257 11.8562 5.99337C12.1127 5.63468 12.3122 5.23143 12.4404 4.79599C12.2969 4.77297 12.1498 4.76094 12 4.76094C11.4222 4.76094 10.8853 4.93918 10.4417 5.24337Z" fill="#505050" stroke="#505050" stroke-width="0.3"/>
</svg>
