<svg width="24" height="24" viewBox="0 0 24 24" fill="none" xmlns="http://www.w3.org/2000/svg">
<g clip-path="url(#clip0_1672_6165)">
<path d="M19.1268 4.00472L19.2102 4L19.3126 4.0063L19.3835 4.0189L19.4803 4.04646L19.5646 4.08268L19.6433 4.12756L19.7142 4.18031L19.7787 4.23937L19.8197 4.28583L19.8843 4.37717L19.9252 4.45276C19.9622 4.5315 19.9858 4.61496 19.9961 4.70157L20 4.78504C20 4.84409 19.9937 4.90236 19.9811 4.95827L19.9535 5.05512L14.8102 19.289C14.7127 19.5012 14.5564 19.681 14.3597 19.8071C14.1631 19.9331 13.9344 20.0001 13.7008 20C13.4904 20.0007 13.2835 19.9468 13.1001 19.8438C12.9167 19.7407 12.7631 19.5919 12.6543 19.4118L12.6031 19.3118L9.96378 14.0346L4.71181 11.4079C4.51748 11.319 4.34989 11.1807 4.22581 11.0067C4.10172 10.8327 4.02548 10.6292 4.00472 10.4165L4 10.2992C4 9.85827 4.23701 9.45512 4.6622 9.22047L4.77244 9.16535L18.9591 4.04252L19.0425 4.0189L19.1268 4.00472Z" fill="#8C8C8C"/>
</g>
<defs>
<clipPath id="clip0_1672_6165">
<rect width="24" height="24" fill="white"/>
</clipPath>
</defs>
</svg>
