<svg width="24" height="24" viewBox="0 0 24 24" fill="none" xmlns="http://www.w3.org/2000/svg">
<path d="M12 20C16.4183 20 20 16.4183 20 12C20 7.58172 16.4183 4 12 4C7.58172 4 4 7.58172 4 12C4 16.4183 7.58172 20 12 20Z" stroke="#505050" stroke-width="1.3" stroke-linecap="round" stroke-linejoin="round"/>
<path d="M12 4V20" stroke="#505050" stroke-width="1.3" stroke-linecap="round" stroke-linejoin="round"/>
<path d="M5.96875 17.2569C6.87057 16.7078 7.61599 15.936 8.13329 15.0157C8.65061 14.0953 8.92241 13.0573 8.9226 12.0015C8.92241 10.9457 8.65061 9.90768 8.13329 8.9873C7.61599 8.06692 6.87057 7.29512 5.96875 6.74609" stroke="#505050" stroke-width="1.3" stroke-linecap="round" stroke-linejoin="round"/>
<path d="M18.0303 6.74609C17.1288 7.29531 16.3837 8.06721 15.8668 8.98758C15.3497 9.90795 15.0781 10.9458 15.0781 12.0015C15.0781 13.0571 15.3497 14.095 15.8668 15.0154C16.3837 15.9358 17.1288 16.7076 18.0303 17.2569" stroke="#505050" stroke-width="1.3" stroke-linecap="round" stroke-linejoin="round"/>
</svg>
