<svg width="24" height="24" viewBox="0 0 24 24" fill="none" xmlns="http://www.w3.org/2000/svg">
<path fill-rule="evenodd" clip-rule="evenodd" d="M12 5.11629C8.19944 5.11629 5.11628 8.20543 5.11628 12.0194C5.11628 15.5633 7.77972 18.4827 11.206 18.8771C11.5498 18.9166 11.9181 18.773 12.2128 18.4775C12.3424 18.3478 12.4151 18.1719 12.4151 17.9886C12.4151 17.8052 12.3424 17.6294 12.2128 17.4996C11.9807 17.2675 11.7477 16.9564 11.6205 16.6044C11.4902 16.2434 11.4575 15.7902 11.7224 15.369C11.9628 14.9873 12.323 14.7826 12.701 14.6829C13.0657 14.5876 13.4683 14.5817 13.856 14.6055C14.2638 14.6352 14.6704 14.6797 15.075 14.7387C15.4895 14.7923 15.8936 14.8421 16.285 14.8607C17.0843 14.8987 17.7005 14.7982 18.1209 14.4544C18.5243 14.1247 18.8837 13.4564 18.8837 12.0194C18.8837 8.20543 15.8006 5.11629 12 5.11629ZM4 12.0194C4 7.59147 7.58028 4 12 4C16.4197 4 20 7.59147 20 12.0194C20 13.6157 19.6004 14.6866 18.8279 15.3184C18.0733 15.9354 17.0969 16.0172 16.2314 15.9755C15.7677 15.9482 15.3054 15.901 14.8458 15.8341C14.4588 15.7843 14.109 15.7389 13.789 15.7195C13.4415 15.6987 13.178 15.7121 12.9853 15.7627C12.8067 15.8096 12.7204 15.8795 12.6675 15.9636C12.6385 16.0098 12.6184 16.0812 12.6705 16.2248C12.7256 16.3781 12.8461 16.5538 13.0032 16.7115C13.3413 17.0505 13.5311 17.5098 13.5311 17.9886C13.5311 18.4674 13.3413 18.9266 13.0032 19.2656C12.5194 19.7508 11.8273 20.0723 11.078 19.986C7.09284 19.5276 4 16.1348 4 12.0194ZM10.2028 7.72096C10.0548 7.72096 9.9128 7.77976 9.80813 7.88444C9.70346 7.98911 9.64465 8.13108 9.64465 8.2791C9.64465 8.42713 9.70346 8.5691 9.80813 8.67377C9.9128 8.77844 10.0548 8.83725 10.2028 8.83725C10.3508 8.83725 10.4928 8.77844 10.5975 8.67377C10.7021 8.5691 10.7609 8.42713 10.7609 8.2791C10.7609 8.13108 10.7021 7.98911 10.5975 7.88444C10.4928 7.77976 10.3508 7.72096 10.2028 7.72096ZM8.52837 8.2791C8.52837 7.83502 8.70478 7.40912 9.0188 7.0951C9.33281 6.78109 9.75871 6.60467 10.2028 6.60467C10.6469 6.60467 11.0728 6.78109 11.3868 7.0951C11.7008 7.40912 11.8772 7.83502 11.8772 8.2791C11.8772 8.72319 11.7008 9.14909 11.3868 9.46311C11.0728 9.77712 10.6469 9.95354 10.2028 9.95354C9.75871 9.95354 9.33281 9.77712 9.0188 9.46311C8.70478 9.14909 8.52837 8.72319 8.52837 8.2791ZM13.8605 7.72096C13.7124 7.72096 13.5705 7.77976 13.4658 7.88444C13.3611 7.98911 13.3023 8.13108 13.3023 8.2791C13.3023 8.42713 13.3611 8.5691 13.4658 8.67377C13.5705 8.77844 13.7124 8.83725 13.8605 8.83725C14.0085 8.83725 14.1505 8.77844 14.2551 8.67377C14.3598 8.5691 14.4186 8.42713 14.4186 8.2791C14.4186 8.13108 14.3598 7.98911 14.2551 7.88444C14.1505 7.77976 14.0085 7.72096 13.8605 7.72096ZM12.186 8.2791C12.186 7.83502 12.3625 7.40912 12.6765 7.0951C12.9905 6.78109 13.4164 6.60467 13.8605 6.60467C14.3045 6.60467 14.7304 6.78109 15.0445 7.0951C15.3585 7.40912 15.5349 7.83502 15.5349 8.2791C15.5349 8.72319 15.3585 9.14909 15.0445 9.46311C14.7304 9.77712 14.3045 9.95354 13.8605 9.95354C13.4164 9.95354 12.9905 9.77712 12.6765 9.46311C12.3625 9.14909 12.186 8.72319 12.186 8.2791ZM7.90698 11.0698C7.75895 11.0698 7.61698 11.1286 7.51231 11.2333C7.40764 11.338 7.34884 11.4799 7.34884 11.628C7.34884 11.776 7.40764 11.918 7.51231 12.0226C7.61698 12.1273 7.75895 12.1861 7.90698 12.1861C8.055 12.1861 8.19697 12.1273 8.30164 12.0226C8.40631 11.918 8.46512 11.776 8.46512 11.628C8.46512 11.4799 8.40631 11.338 8.30164 11.2333C8.19697 11.1286 8.055 11.0698 7.90698 11.0698ZM6.23256 11.628C6.23256 11.1839 6.40897 10.758 6.72298 10.444C7.037 10.1299 7.46289 9.95354 7.90698 9.95354C8.35106 9.95354 8.77696 10.1299 9.09097 10.444C9.40498 10.758 9.5814 11.1839 9.5814 11.628C9.5814 12.0721 9.40498 12.498 9.09097 12.812C8.77696 13.126 8.35106 13.3024 7.90698 13.3024C7.46289 13.3024 7.037 13.126 6.72298 12.812C6.40897 12.498 6.23256 12.0721 6.23256 11.628ZM16.093 11.0698C15.945 11.0698 15.803 11.1286 15.6984 11.2333C15.5937 11.338 15.5349 11.4799 15.5349 11.628C15.5349 11.776 15.5937 11.918 15.6984 12.0226C15.803 12.1273 15.945 12.1861 16.093 12.1861C16.2411 12.1861 16.383 12.1273 16.4877 12.0226C16.5924 11.918 16.6512 11.776 16.6512 11.628C16.6512 11.4799 16.5924 11.338 16.4877 11.2333C16.383 11.1286 16.2411 11.0698 16.093 11.0698ZM14.4186 11.628C14.4186 11.4081 14.4619 11.1903 14.5461 10.9872C14.6302 10.784 14.7535 10.5995 14.909 10.444C15.0645 10.2885 15.2491 10.1651 15.4523 10.081C15.6554 9.99685 15.8731 9.95354 16.093 9.95354C16.3129 9.95354 16.5306 9.99685 16.7338 10.081C16.9369 10.1651 17.1215 10.2885 17.277 10.444C17.4325 10.5995 17.5558 10.784 17.64 10.9872C17.7241 11.1903 17.7674 11.4081 17.7674 11.628C17.7674 12.0721 17.591 12.498 17.277 12.812C16.963 13.126 16.5371 13.3024 16.093 13.3024C15.6489 13.3024 15.223 13.126 14.909 12.812C14.595 12.498 14.4186 12.0721 14.4186 11.628Z" fill="#505050"/>
</svg>
