<svg width="32" height="32" viewBox="0 0 32 32" fill="none" xmlns="http://www.w3.org/2000/svg">
<path d="M25.9101 21.3453V21.3455C25.9101 24.5052 21.6283 27.0668 16.3464 27.0668C11.7801 27.0668 7.96252 25.1522 7.01158 22.5919L6.59689 22.4923V21.774L6.41114 21.6906C5.98795 21.5007 5.98795 21.19 6.41114 21.0001L6.59689 20.9167V14.5469L12.358 16.1444C13.572 15.8106 14.9227 15.6243 16.3464 15.6243C17.8581 15.6243 19.2876 15.8344 20.5586 16.208L25.9101 14.9219V21.3453Z" fill="#132028"/>
<path d="M7.6636 24.3178L7.98566 27.8234C8.04673 28.4879 7.55748 29.0762 6.89285 29.1373C6.22823 29.1983 5.64004 28.7091 5.57898 28.0444C5.57263 27.9709 5.57263 27.8969 5.57898 27.8233L5.90104 24.3178C5.94573 23.831 6.37654 23.4727 6.86329 23.5174C7.29504 23.5571 7.62566 23.901 7.6636 24.3178Z" fill="#FFB636"/>
<path d="M14.7677 21.5997L0.656141 13.7674C-0.0207969 13.3917 -0.0207969 12.7769 0.656141 12.4011L14.7677 4.56892C15.4446 4.19317 16.5525 4.19317 17.2294 4.56892L31.341 12.4012C32.0179 12.7769 32.0179 13.3917 31.341 13.7675L17.2295 21.5997C16.5525 21.9754 15.4447 21.9754 14.7677 21.5997Z" fill="#464A4C"/>
<path d="M6.78194 24.738C5.78056 24.738 4.96875 23.9262 4.96875 22.9248V22.4558C4.96875 21.4545 5.78056 20.6426 6.78194 20.6426C7.78331 20.6426 8.59513 21.4544 8.59513 22.4558V22.9248C8.59513 23.9262 7.78331 24.738 6.78194 24.738Z" fill="#FFD592"/>
<path d="M6.77881 23.0546C6.25806 23.0546 5.83594 22.6325 5.83594 22.1117V17.8223C5.83594 17.4872 6.01381 17.1773 6.30312 17.0082L15.5224 11.6211C15.972 11.3584 16.5494 11.5099 16.8122 11.9595C17.0749 12.4091 16.9234 12.9866 16.4738 13.2493L7.72169 18.3634V22.1118C7.72169 22.6325 7.2995 23.0546 6.77881 23.0546Z" fill="#FFB636"/>
<path d="M18.147 12.4336C18.147 13.2653 17.1863 13.9395 16.0012 13.9395C14.8162 13.9395 13.8555 13.2653 13.8555 12.4336C13.8555 11.6019 14.8162 10.9277 16.0012 10.9277C17.1863 10.9277 18.147 11.6019 18.147 12.4336Z" fill="#132028"/>
</svg>
