<svg width="50" height="50" viewBox="0 0 50 50" fill="none" xmlns="http://www.w3.org/2000/svg">
<circle cx="25" cy="25" r="25" fill="#F0F0F0"/>
<path d="M13.6327 31.4082C12.2647 29.0388 13.0788 26.0007 15.4482 24.6327L20.9908 21.4327L19.4708 18.8L13.9282 22C10.1038 24.208 8.792 29.1038 11 32.9282C13.208 36.7526 18.1038 38.0644 21.9282 35.8564L27.4708 32.6564L25.9508 30.0237L20.4082 33.2237C18.0388 34.5917 15.0007 33.7776 13.6327 31.4082ZM20.1138 29.5138L31.199 23.1138L29.599 20.3426L18.5138 26.7426L20.1138 29.5138ZM27.7846 14L22.242 17.2L23.762 19.8327L29.3046 16.6327C31.6741 15.2647 34.7121 16.0788 36.0801 18.4482C37.4481 20.8176 36.6341 23.8557 34.2646 25.2237L28.722 28.4237L30.242 31.0564L35.7846 27.8564C39.609 25.6484 40.9208 20.7526 38.7128 16.9282C36.5048 13.1038 31.609 11.792 27.7846 14Z" fill="#8C8C8C"/>
</svg>
