<svg width="50" height="50" viewBox="0 0 50 50" fill="none" xmlns="http://www.w3.org/2000/svg">
<circle cx="25" cy="25" r="24" stroke="#F0F0F0" stroke-width="2"/>
<path fill-rule="evenodd" clip-rule="evenodd" d="M27.4216 34.9695C27.4216 34.1493 26.7491 33.4845 25.9196 33.4845H24.0804C23.6821 33.4845 23.3 33.6409 23.0184 33.9194C22.7367 34.1979 22.5784 34.5756 22.5784 34.9695C22.5784 35.7896 23.2509 36.4545 24.0804 36.4545H25.9196C26.7491 36.4545 27.4216 35.7896 27.4216 34.9695ZM16.1575 31.1403C16.4084 31.1592 16.7119 31.1701 17.0168 31.1524C17.1792 31.9668 17.5827 32.7222 18.185 33.3177C18.9846 34.1082 20.0691 34.5523 21.1998 34.5523H21.7729C21.7477 34.6891 21.7347 34.8286 21.7347 34.9695C21.7347 35.1119 21.7477 35.2513 21.7726 35.3866H21.1998C19.8453 35.3866 18.5462 34.8546 17.5884 33.9076C16.8243 33.1521 16.3273 32.1818 16.1575 31.1403ZM15.7284 30.2526C15.0622 30.1416 14.4423 29.8284 13.9585 29.35C13.3448 28.7432 13 27.9203 13 27.0622V25.0905C13 24.2324 13.3448 23.4095 13.9585 22.8027C14.5721 22.1959 15.4045 21.855 16.2724 21.855H16.4902C16.8384 17.5099 20.5154 14.0908 25 14.0908C29.4846 14.0908 33.1616 17.5099 33.5098 21.855H33.7276C34.5955 21.855 35.4279 22.1959 36.0415 22.8027C36.6552 23.4095 37 24.2324 37 25.0905V27.0622C37 27.9203 36.6552 28.7432 36.0415 29.35C35.4279 29.9568 34.5955 30.2976 33.7276 30.2976H32.7619C32.3614 30.2976 32.0368 29.9766 32.0368 29.5807V22.5312C32.0368 18.6888 28.8863 15.5739 25 15.5739C21.1137 15.5739 17.9632 18.6888 17.9632 22.5312V29.5807C17.9632 29.8602 17.8014 30.1025 17.5652 30.2207C16.9151 30.4437 15.907 30.2824 15.7284 30.2526Z" fill="#505050"/>
</svg>
