<svg width="16" height="16" viewBox="0 0 16 16" fill="none" xmlns="http://www.w3.org/2000/svg">
<path d="M8.00037 16C7.71398 16.0004 7.43032 15.9443 7.16567 15.8348C6.90102 15.7254 6.66059 15.5647 6.45816 15.3622L5.64612 14.5494C5.54753 14.4503 5.43026 14.3717 5.3011 14.3182C5.17193 14.2646 5.03344 14.2372 4.89362 14.2376H3.94239C3.36418 14.237 2.80982 14.007 2.40096 13.5982C1.99211 13.1894 1.76215 12.6351 1.76156 12.0569V11.1065C1.76199 10.9667 1.73472 10.8282 1.68132 10.6991C1.62792 10.5699 1.54944 10.4526 1.45044 10.354L0.637651 9.54201C0.229314 9.13265 0 8.57807 0 7.99989C0 7.42171 0.229314 6.86713 0.637651 6.45777L1.45044 5.64578C1.54958 5.54719 1.62819 5.42993 1.68172 5.30077C1.73525 5.17162 1.76264 5.03313 1.7623 4.89332V3.94215C1.7629 3.36398 1.99285 2.80965 2.40171 2.40082C2.81056 1.99199 3.36492 1.76204 3.94313 1.76145H4.89362C5.03338 1.76189 5.17185 1.73462 5.30101 1.68122C5.43017 1.62782 5.54747 1.54935 5.64612 1.45035L6.45816 0.637613C6.86754 0.2293 7.42216 0 8.00037 0C8.57859 0 9.1332 0.2293 9.54258 0.637613L10.3546 1.45035C10.4532 1.54949 10.5705 1.62809 10.6996 1.68162C10.8288 1.73514 10.9673 1.76253 11.1071 1.7622H12.0584C12.6366 1.76279 13.1909 1.99273 13.5998 2.40156C14.0086 2.81039 14.2386 3.36472 14.2392 3.9429V4.89332C14.2388 5.03308 14.266 5.17154 14.3194 5.30069C14.3728 5.42984 14.4513 5.54713 14.5503 5.64578L15.3623 6.45777C15.7707 6.86713 16 7.42171 16 7.99989C16 8.57807 15.7707 9.13265 15.3623 9.54201L14.5503 10.354C14.4512 10.4526 14.3726 10.5698 14.319 10.699C14.2655 10.8282 14.2381 10.9666 14.2384 11.1065V12.0576C14.2378 12.6358 14.0079 13.1901 13.599 13.599C13.1902 14.0078 12.6358 14.2377 12.0576 14.2383H11.1071C10.9673 14.238 10.8288 14.2654 10.6996 14.3189C10.5705 14.3724 10.4532 14.451 10.3546 14.5502L9.54258 15.3622C9.34016 15.5647 9.09972 15.7254 8.83507 15.8348C8.57042 15.9443 8.28677 16.0004 8.00037 16ZM3.94239 2.87785C3.66016 2.87805 3.38955 2.99024 3.18999 3.1898C2.99042 3.38935 2.87822 3.65994 2.87803 3.94215V4.89332C2.87906 5.18014 2.82307 5.46431 2.71331 5.7293C2.60355 5.9943 2.44221 6.23483 2.23866 6.43693L1.42736 7.24818C1.22792 7.44811 1.11592 7.71898 1.11592 8.00138C1.11592 8.28377 1.22792 8.55464 1.42736 8.75457L2.23866 9.56582C2.44203 9.76774 2.60327 10.008 2.71302 10.2728C2.82278 10.5375 2.87886 10.8214 2.87803 11.1079V12.0591C2.87822 12.3413 2.99042 12.6119 3.18999 12.8115C3.38955 13.011 3.66016 13.1232 3.94239 13.1234H4.89362C5.18018 13.1227 5.46404 13.1789 5.72875 13.2886C5.99347 13.3984 6.2338 13.5595 6.43583 13.7627L7.24713 14.574C7.44708 14.7734 7.71796 14.8854 8.00037 14.8854C8.28278 14.8854 8.55367 14.7734 8.75361 14.574L9.56491 13.7627C9.76694 13.5595 10.0073 13.3984 10.272 13.2886C10.5367 13.1789 10.8206 13.1227 11.1071 13.1234H12.0584C12.3406 13.1232 12.6112 13.011 12.8108 12.8115C13.0103 12.6119 13.1225 12.3413 13.1227 12.0591V11.1065C13.1219 10.8199 13.178 10.536 13.2877 10.2713C13.3975 10.0065 13.5587 9.76625 13.7621 9.56433L14.5734 8.75309C14.7728 8.55315 14.8848 8.28228 14.8848 7.99989C14.8848 7.71749 14.7728 7.44663 14.5734 7.24669L13.7621 6.43693C13.5588 6.23491 13.3977 5.9946 13.288 5.7299C13.1782 5.46519 13.122 5.18136 13.1227 4.89481V3.94215C13.1225 3.65994 13.0103 3.38935 12.8108 3.1898C12.6112 2.99024 12.3406 2.87805 12.0584 2.87785H11.1071C10.8203 2.87889 10.5361 2.8229 10.2711 2.71314C10.0061 2.60339 9.76553 2.44206 9.56342 2.23853L8.75213 1.42728C8.55218 1.22785 8.28129 1.11585 7.99888 1.11585C7.71647 1.11585 7.44559 1.22785 7.24564 1.42728L6.43732 2.23853C6.23539 2.44188 5.99508 2.60311 5.73034 2.71286C5.4656 2.8226 5.1817 2.87869 4.89511 2.87785H3.94239Z" fill="#FFC143"/>
<path d="M7.25559 10.0463C7.18227 10.0465 7.10964 10.0321 7.04192 10.004C6.9742 9.97592 6.91274 9.93464 6.8611 9.8826L5.37248 8.39406C5.27387 8.28825 5.22019 8.14829 5.22274 8.00368C5.22529 7.85907 5.28388 7.72109 5.38616 7.61882C5.48844 7.51655 5.62642 7.45797 5.77104 7.45541C5.91566 7.45286 6.05563 7.50654 6.16145 7.60514L7.25559 8.69847L9.83834 6.11661C9.94417 6.01801 10.0841 5.96433 10.2288 5.96688C10.3734 5.96944 10.5114 6.02802 10.6136 6.13029C10.7159 6.23256 10.7745 6.37054 10.777 6.51515C10.7796 6.65976 10.7259 6.79972 10.6273 6.90553L7.65007 9.8826C7.59843 9.93464 7.53697 9.97592 7.46925 10.004C7.40153 10.0321 7.32891 10.0465 7.25559 10.0463Z" fill="#FFC143"/>
</svg>
