<svg width="50" height="50" viewBox="0 0 50 50" fill="none" xmlns="http://www.w3.org/2000/svg">
<circle cx="25" cy="25" r="24" fill="#FFF8EB" stroke="#FFC143" stroke-width="2"/>
<path d="M15.651 35C14.9168 35 14.2914 34.7349 13.7749 34.2048C13.2583 33.6746 13 33.0328 13 32.2793V17.7496C13 16.9882 13.2583 16.3395 13.7749 15.8037C14.2914 15.2679 14.9168 15 15.651 15H34.3208C35.0628 15 35.6948 15.2679 36.2169 15.8037C36.739 16.3395 37 16.9882 37 17.7496V32.2793C37 33.0328 36.739 33.6746 36.2169 34.2048C35.6948 34.7349 35.0628 35 34.3208 35H15.651ZM24.9859 26.1722C25.1175 26.1722 25.2397 26.1529 25.3525 26.1143C25.4653 26.0757 25.5889 26.0174 25.7231 25.9392L33.926 20.2967C34.02 20.2484 34.1093 20.1544 34.1939 20.0145C34.2785 19.8746 34.3208 19.7152 34.3208 19.5365C34.3208 19.2013 34.1657 18.9259 33.8555 18.7101C33.5452 18.4943 33.2303 18.5022 32.9107 18.7337L24.9859 24.0593L17.0893 18.7337C16.7697 18.5215 16.4501 18.5022 16.1304 18.6758C15.8108 18.8495 15.651 19.1277 15.651 19.5106C15.651 19.6816 15.698 19.8361 15.792 19.974C15.886 20.1119 15.9818 20.2201 16.0794 20.2986L24.2493 25.9392C24.3831 26.0174 24.5065 26.0757 24.6193 26.1143C24.7321 26.1529 24.8543 26.1722 24.9859 26.1722Z" fill="#FFC95D"/>
</svg>
